# xmcd CD database file
#
# Track frame offsets:
#	150
#	20136
#	39195
#	68525
#	84954
#	104827
#	121566
#	138612
#	162055
#	185316
#	194361
#	213935
#	243241
#	266502
#	285974
#	303609
#
# Disc length: 4366 seconds
#
# Revision: 1
# Processed by: cddbd v1.5.2PL0 Copyright (c) Steve Scherf et al.
# Submitted via: CDex 1.51
#
DISCID=d3110c10
DTITLE=Innocent Key - 東方サマーバケーション
DYEAR=2009
DGENRE=東方アレンジ系
TTITLE0=最高の夏がまっているから feat.℃iel
TTITLE1=Summer Vibes feat.shihori
TTITLE2=幻想ビキニ　～悪戯開始だ!三月精! feat.ココ、小宮 真央、梨本 悠里、miko、大瀬良あい、Nimo
TTITLE3=残念な夏休み　-妬Mix- feat.JUNCA、ココ
TTITLE4=橙のきもだめし feat.ココ、梨本悠里、溝口ゆうま
TTITLE5=永遠の風
TTITLE6=モスキート★ラブ feat.℃iel、ココ
TTITLE7=夏祭りの夜 feat.夏本紫
TTITLE8=晩夏のビーチ　～Dive into the sea! feat.ココ、大瀬良あい
TTITLE9=風鈴
TTITLE10=宿題が終わらないっ! feat.梨本悠里、JUNCA、小宮真央、樹詩音、大瀬良あい
TTITLE11=幻想ビキニ　～悪戯開始だ!三月精!　-inst
TTITLE12=晩夏のビーチ　～Dive into the sea!　-inst
TTITLE13=宿題が終わらないっ!　-inst
TTITLE14=鳥ならおまかせ焼き鳥屋　-inst
TTITLE15=幾年創世幻想曲　-inst
EXTD=YEAR: 2009
EXTT0=
EXTT1=
EXTT2=
EXTT3=
EXTT4=
EXTT5=
EXTT6=
EXTT7=
EXTT8=
EXTT9=
EXTT10=
EXTT11=
EXTT12=
EXTT13=
EXTT14=
EXTT15=
PLAYORDER=
